<svg width="37" height="36" viewBox="0 0 37 36" fill="none" xmlns="http://www.w3.org/2000/svg">
<path d="M11.0834 22.348H27.0834C27.5367 22.348 27.917 22.1932 28.2242 21.8836C28.5314 21.5741 28.6844 21.1914 28.6834 20.7356C28.6823 20.2799 28.5287 19.8972 28.2226 19.5877C27.9164 19.2781 27.5367 19.1233 27.0834 19.1233H11.0834C10.63 19.1233 10.2503 19.2781 9.94417 19.5877C9.63804 19.8972 9.48444 20.2799 9.48337 20.7356C9.48231 21.1914 9.63591 21.5746 9.94417 21.8852C10.2524 22.1959 10.6322 22.3501 11.0834 22.348ZM11.0834 17.511H27.0834C27.5367 17.511 27.917 17.3562 28.2242 17.0466C28.5314 16.7371 28.6844 16.3544 28.6834 15.8987C28.6823 15.4429 28.5287 15.0602 28.2226 14.7507C27.9164 14.4411 27.5367 14.2863 27.0834 14.2863H11.0834C10.63 14.2863 10.2503 14.4411 9.94417 14.7507C9.63804 15.0602 9.48444 15.4429 9.48337 15.8987C9.48231 16.3544 9.63591 16.7376 9.94417 17.0482C10.2524 17.3589 10.6322 17.5131 11.0834 17.511ZM11.0834 12.674H27.0834C27.5367 12.674 27.917 12.5192 28.2242 12.2096C28.5314 11.9001 28.6844 11.5174 28.6834 11.0617C28.6823 10.6059 28.5287 10.2232 28.2226 9.91368C27.9164 9.60411 27.5367 9.44933 27.0834 9.44933H11.0834C10.63 9.44933 10.2503 9.60411 9.94417 9.91368C9.63804 10.2232 9.48444 10.6059 9.48337 11.0617C9.48231 11.5174 9.63591 11.9006 9.94417 12.2112C10.2524 12.5219 10.6322 12.6761 11.0834 12.674ZM6.28337 28.7973C5.40337 28.7973 4.65031 28.4818 4.02417 27.8509C3.39804 27.2199 3.08444 26.4605 3.08337 25.5726V6.22466C3.08337 5.33788 3.39697 4.57901 4.02417 3.94805C4.65137 3.31709 5.40444 3.00107 6.28337 3H31.8834C32.7634 3 33.517 3.31602 34.1442 3.94805C34.7714 4.58008 35.0844 5.33896 35.0834 6.22466V31.3367C35.0834 32.0623 34.757 32.5664 34.1042 32.8491C33.4514 33.1318 32.8711 33.0173 32.3634 32.5057L28.6834 28.7973H6.28337Z" fill="#FCFCF7"/>
</svg>
