<svg width="28" height="28" viewBox="0 0 28 28" fill="none" xmlns="http://www.w3.org/2000/svg">
<path d="M7.00001 16.3335H21V14.0002H7.00001V16.3335ZM7.00001 12.8335H21V10.5002H7.00001V12.8335ZM7.00001 9.3335H21V7.00016H7.00001V9.3335ZM25.6667 25.6668L21 21.0002H4.66668C4.02501 21.0002 3.4757 20.7717 3.01876 20.3147C2.56182 19.8578 2.33334 19.3085 2.33334 18.6668V4.66683C2.33334 4.02516 2.56182 3.47586 3.01876 3.01891C3.4757 2.56197 4.02501 2.3335 4.66668 2.3335H23.3333C23.975 2.3335 24.5243 2.56197 24.9813 3.01891C25.4382 3.47586 25.6667 4.02516 25.6667 4.66683V25.6668ZM4.66668 18.6668H21.9917L23.3333 19.9793V4.66683H4.66668V18.6668Z" fill="#1D1B20"/>
</svg>
