<svg width="32" height="30" viewBox="0 0 32 30" fill="none" xmlns="http://www.w3.org/2000/svg">
<path d="M32 2.00378C32 1.3101 31.6437 0.666416 31.05 0.303952C30.4562 -0.0585111 29.725 -0.0960073 29.1063 0.216461L21.8438 3.84734L10.6313 0.103973C10.125 -0.0647604 9.58125 -0.0272642 9.10625 0.210212L1.10625 4.20981C0.425 4.55352 0 5.2472 0 6.00338V28.0012C0 28.6948 0.35625 29.3385 0.95 29.701C1.54375 30.0634 2.275 30.1009 2.89375 29.7885L10.15 26.1576L21.3625 29.8947C21.8687 30.0634 22.4125 30.026 22.8875 29.7885L30.8875 25.7889C31.5625 25.4514 31.9937 24.7577 31.9937 24.0016V2.00378H32ZM12 22.558V4.7785L20 7.44698V25.2264L12 22.558Z" fill="#FCFCF7"/>
</svg>
