<svg width="20" height="20" viewBox="0 0 20 20" fill="none" xmlns="http://www.w3.org/2000/svg">
<path d="M18.8986 18.756L17.1015 17.0289M9.46381 17.8925C10.5848 17.8925 11.6948 17.6803 12.7305 17.268C13.7662 16.8557 14.7072 16.2515 15.4998 15.4897C16.2925 14.7279 16.9213 13.8236 17.3503 12.8283C17.7793 11.833 18 10.7662 18 9.68891C18 8.6116 17.7793 7.54485 17.3503 6.54954C16.9213 5.55424 16.2925 4.64989 15.4998 3.88812C14.7072 3.12635 13.7662 2.52208 12.7305 2.10981C11.6948 1.69754 10.5848 1.48535 9.46381 1.48535C7.19986 1.48535 5.02864 2.34965 3.42779 3.88812C1.82693 5.42658 0.927582 7.51319 0.927582 9.68891C0.927582 11.8646 1.82693 13.9512 3.42779 15.4897C5.02864 17.0282 7.19986 17.8925 9.46381 17.8925V17.8925Z" stroke="white" stroke-width="1.5" stroke-linecap="round" stroke-linejoin="round"/>
</svg>
