<svg width="69" height="69" viewBox="0 0 69 69" fill="none" xmlns="http://www.w3.org/2000/svg">
<path d="M11.8622 57.5002C11.4137 57.5002 11.017 57.3939 10.672 57.1811C10.327 56.9684 10.0586 56.6876 9.86698 56.3387C9.65998 55.9957 9.54498 55.6248 9.52198 55.2261C9.50281 54.8255 9.6159 54.4221 9.86123 54.0157L32.4875 14.9847C32.7328 14.5784 33.028 14.2832 33.373 14.0992C33.718 13.9152 34.0936 13.8232 34.5 13.8232C34.9063 13.8232 35.281 13.9152 35.6241 14.0992C35.9672 14.2832 36.2624 14.5784 36.5096 14.9847L59.1387 54.0157C59.3841 54.4221 59.4962 54.8246 59.4751 55.2232C59.4559 55.6257 59.3409 55.9976 59.1301 56.3387C58.9384 56.6876 58.6701 56.9684 58.3251 57.1811C57.9801 57.3939 57.5843 57.5002 57.1377 57.5002H11.8622ZM34.5 50.6462C35.0021 50.6462 35.4229 50.4766 35.7621 50.1374C36.1014 49.7981 36.27 49.3774 36.2681 48.8752C36.2662 48.3731 36.0966 47.9533 35.7592 47.616C35.4219 47.2787 35.0021 47.1081 34.5 47.1042C33.9978 47.1004 33.5781 47.27 33.2407 47.6131C32.9034 47.9562 32.7338 48.3769 32.7319 48.8752C32.7299 49.3736 32.8996 49.7943 33.2407 50.1374C33.5819 50.4804 34.0016 50.6501 34.5 50.6462ZM34.5 44.2321C34.9101 44.2321 35.2523 44.0941 35.5264 43.8181C35.8004 43.5421 35.9375 43.2009 35.9375 42.7946V31.2946C35.9375 30.8864 35.7995 30.5442 35.5235 30.2682C35.2475 29.9922 34.9054 29.8552 34.4971 29.8571C34.0889 29.859 33.7477 29.9961 33.4736 30.2682C33.1995 30.5404 33.0625 30.8825 33.0625 31.2946V42.7946C33.0625 43.2009 33.2005 43.5421 33.4765 43.8181C33.7525 44.0941 34.0946 44.2321 34.5029 44.2321" fill="#BF3100"/>
</svg>
