<svg width="23" height="22" viewBox="0 0 23 22" fill="none" xmlns="http://www.w3.org/2000/svg">
<path d="M21.319 7.95893C21.6833 7.5951 21.9723 7.16304 22.1696 6.68744C22.3668 6.21185 22.4684 5.70204 22.4685 5.18716C22.4686 4.67229 22.3672 4.16244 22.1702 3.68676C21.9731 3.21108 21.6843 2.7789 21.3201 2.41493L20.0522 1.14705C19.3174 0.41246 18.3209 -0.000213623 17.2819 -0.000213623C16.2429 -0.000213623 15.2464 0.41246 14.5116 1.14705L1.67986 13.9754C1.31567 14.3391 1.02676 14.771 0.829662 15.2465C0.632568 15.722 0.531158 16.2316 0.531238 16.7463V21.0967C0.531238 21.3205 0.620134 21.5351 0.778367 21.6933C0.936601 21.8515 1.15121 21.9404 1.37499 21.9404H5.69949C6.21364 21.9405 6.72278 21.8393 7.19782 21.6426C7.67286 21.4459 8.10451 21.1576 8.46811 20.7941L21.319 7.95893ZM20.1265 3.60855C20.3339 3.81574 20.4985 4.06179 20.6107 4.33262C20.723 4.60345 20.7808 4.89375 20.7808 5.18693C20.7808 5.48011 20.723 5.77041 20.6107 6.04124C20.4985 6.31207 20.3339 6.55812 20.1265 6.7653L19.1174 7.7733L14.695 3.35093L15.7052 2.34068C16.1236 1.92244 16.6909 1.68749 17.2825 1.68749C17.874 1.68749 18.4414 1.92244 18.8597 2.34068L20.1265 3.60855Z" fill="#1D1B20"/>
</svg>
